/vscmnt/brussel_pixiu_data/_data_brussel/112/vsc11236/PredSimResults/SUBJ07opt3D/trackIG/worker_09.mot
version=1
nRows=4
nColumns=50
inDegrees=yes
endheader
                time	         pelvis_tilt	         pelvis_list	     pelvis_rotation	           pelvis_tx	           pelvis_ty	           pelvis_tz	       hip_flexion_r	     hip_adduction_r	      hip_rotation_r	        knee_angle_r	       ankle_angle_r	         mtp_angle_r	       hip_flexion_l	     hip_adduction_l	      hip_rotation_l	        knee_angle_l	       ankle_angle_l	         mtp_angle_l	    lumbar_extension	      lumbar_bending	     lumbar_rotation	 ercspn_r/activation	 intobl_r/activation	 extobl_r/activation	    abd_r/activation	    add_r/activation	hamstrings_r/activation	bifemsh_r/activation	glut_max_r/activation	iliopsoas_r/activation	rect_fem_r/activation	  vasti_r/activation	gastroc_r/activation	 soleus_r/activation	tib_ant_r/activation	 ercspn_l/activation	 intobl_l/activation	 extobl_l/activation	    abd_l/activation	    add_l/activation	hamstrings_l/activation	bifemsh_l/activation	glut_max_l/activation	iliopsoas_l/activation	rect_fem_l/activation	  vasti_l/activation	gastroc_l/activation	 soleus_l/activation	tib_ant_l/activation	
          1.01396682	         -5.75139525	         -0.92729672	          8.61753575	          1.41955354	          0.84603990	         -0.01038331	         31.71347308	         -1.86905403	         -4.55828065	         -6.73286342	          3.30305640	          0.29587727	        -12.92423508	         -0.96036848	          3.28032995	        -12.40592586	          4.87184567	         33.06662877	        -13.20409479	         -0.06249178	         -2.32631259	          0.13119638	          0.10715348	          0.00999999	          0.02233514	          0.16109828	          0.07989432	          0.14217110	          0.09983205	          0.04574324	          0.00999999	          0.00999999	          0.00999999	          0.00999999	          0.47926946	          0.13948835	          0.00999999	          0.00999999	          0.01867452	          0.03272251	          0.01469293	          0.11464523	          0.01366547	          0.01000000	          0.03432431	          0.01843756	          0.20061513	          0.24598674	          0.01168993	
          1.02410649	         -5.70385094	         -0.85676844	          8.62697274	          1.43667206	          0.84427743	         -0.00987224	         31.59988896	         -1.69657783	         -4.35090902	         -8.59803365	          2.85103396	          0.27187475	        -13.86672919	         -1.07297588	          3.02408662	        -12.75256514	          3.58866587	         34.18572083	        -13.00658342	          0.17880942	         -2.52638023	          0.11223011	          0.09879493	          0.00999999	          0.02639416	          0.15577167	          0.07615122	          0.12161828	          0.16408928	          0.03913042	          0.00999999	          0.00999999	          0.01366547	          0.01168993	          0.50526049	          0.13267035	          0.00999999	          0.00999999	          0.01597486	          0.07471688	          0.01461496	          0.09807166	          0.01168993	          0.14725042	          0.02936225	          0.01577215	          0.17161342	          0.22604610	          0.00999999	
          1.03424615	         -5.65471892	         -0.78031045	          8.58928545	          1.45376047	          0.84263694	         -0.00931076	         31.41671530	         -1.57671922	         -4.15433893	        -10.41378496	          2.41722273	          0.26182469	        -14.52212307	         -1.15074818	          2.73418989	        -13.63538596	          2.35695480	         35.09905867	        -12.82822179	          0.41853008	         -2.70328404	          0.13784947	          0.08451274	          0.00999999	          0.12663477	          0.18583226	          0.06526693	          0.10403667	          0.17047914	          0.03347357	          0.00999999	          0.00999999	          0.01168994	          0.00999999	          0.61160325	          0.15394199	          0.00999999	          0.00999999	          0.01366547	          0.06890167	          0.01598597	          0.08389404	          0.00999999	          0.21190357	          0.02511753	          0.01349207	          0.14680430	          0.19806397	          0.00999999	
          1.04438582	         -5.60608039	         -0.69325013	          8.50929691	          1.47061390	          0.84131342	         -0.00867854	         31.22959242	         -1.46599693	         -3.99812557	        -12.17167383	          1.91924972	          0.23517809	        -14.79349071	         -1.19117644	          2.42846138	        -15.19027402	          1.17126242	         35.71118825	        -12.69312488	          0.65050897	         -2.85690661	          0.16040866	          0.07229525	          0.00999999	          0.18325967	          0.20785201	          0.05583168	          0.08899671	          0.21759032	          0.02863450	          0.00999999	          0.00999999	          0.00999999	          0.00999999	          0.63280147	          0.19697621	          0.00999999	          0.00999999	          0.01168993	          0.07498231	          0.01744936	          0.07176598	          0.00999999	          0.24171454	          0.02148644	          0.01154160	          0.12558169	          0.16943105	          0.00999999	
